<?xml version="1.0"?><svg version="1.2" baseProfile="tiny-ps" viewBox="0 0 200 200" xmlns="http://www.w3.org/2000/svg" xmlns:xlink="http://www.w3.org/1999/xlink"><title>lcepelak_logo</title><g><g fill="#fcfcfc" transform="matrix(.1 0 0 -.1 0 200)"><path d="M217 1993c-4-3-7-15-7-26 0-20-9-54-35-127-7-19-26-82-44-140s-37-118-42-135c-10-29-15-44-38-125-5-19-16-53-25-75l-15-40v-50l-1-50 20-25c11-14 20-31 20-37 0-7 5-13 10-13h10v-41l15-5c8-4 15-12 15-20 0-7 13-33 30-57 17-25 30-48 30-53 0-4 8-16 17-27l18-19 3-217c1-119 5-226 7-238l5-23h243l23-26c13-14 24-30 24-35 0-6 11-25 25-43s25-40 25-49c0-10 4-17 10-17 5 0 21-24 35-52 35-72 76-142 86-146 5-2 9-11 9-20 1-10 9-27 19-39l19-23h525l13 18c7 9 14 22 14 29s12 31 28 55c36 57 47 75 73 123 11 22 33 58 48 80s34 56 43 76c10 19 25 43 35 52l19 16 119 3 120 3 5 220 5 220 28 55c33 65 68 126 120 210 20 34 37 67 37 75 0 7 6 15 13 18l12 4-12 22c-7 11-13 30-13 40 0 19-45 169-75 251-24 66-35 106-35 126 0 11-7 29-15 40-8 10-15 28-15 39s-13 58-30 105c-16 47-30 93-30 102v18h-132l7-17c13-32 66-207 72-238 3-16 9-35 14-40 4-6 9-28 11-50l3-40h-50l-18 60c-10 33-24 73-32 88-8 16-15 35-15 43v14l-25 10-25 10-24-9c-24-10-36-29-36-61 0-9-7-23-15-30l-15-12v-28c0-15-7-41-16-58l-15-32h-49v22c0 23 3 34 50 173 16 50 30 100 30 110 0 11 7 29 15 39 8 11 15 26 15 33v13h-116l-12-12-12-12v-31c0-17-4-35-10-41-5-5-19-45-31-89-11-43-27-91-35-106-7-15-14-39-14-52 0-12-5-28-12-35l-12-12H723l-16 18c-10 10-17 26-17 36s-11 52-25 94c-25 75-65 205-71 230l-3 12h-61c-33 0-60-3-60-6 0-7 25-85 45-144 24-69 35-107 35-122 0-9 7-29 15-44 8-16 15-39 15-51v-23h-22l-23 1-16 22c-9 12-19 39-23 61-4 21-12 46-17 55s-13 28-19 44l-10 27-24 12-25 11-23-15-23-15-14-49c-7-27-19-62-27-79-7-16-14-39-16-50l-3-20-28-3-27-3v28c0 16 12 62 26 103s28 89 31 105c2 17 8 39 13 50s16 39 24 63l14 42h-63c-34 0-65-3-68-7zm-33-660-18-13-9 9-9 9 7 47 8 47 13 5c8 3 15 13 16 22s3-13 5-49l4-64-17-13zm1636 50 7-43-13-11-12-10-16 23-16 22v106l22-22 22-22 6-43zM200 1183v-18l-8 10c-4 6-11 13-16 18l-9 7h33v-17zm1600 7c-19-13-30-13-30 0v10h45l-15-10zm-444-754 5-13-27-49c-15-27-32-56-39-64-6-8-19-31-29-50s-23-44-29-55c-7-11-25-42-42-70-16-27-34-53-40-57l-10-8H834l-16 12c-17 14-50 65-69 108-6 14-21 39-35 57-13 17-24 38-24 46s-7 20-15 27-15 19-15 26c0 8-4 14-8 14s-14 16-21 35l-12 35 6 10 6 10h720l5-14z"/></g><g fill="#dcdcdc" transform="matrix(.1 0 0 -.1 0 200)"><path d="M217 1993c-4-3-7-15-7-26 0-20-9-54-35-127-7-19-26-82-44-140s-37-118-42-135c-10-29-15-44-38-125-5-19-16-53-25-75l-15-40v-50l-1-50 20-25c11-14 20-31 20-37 0-7 5-13 10-13h10v-41l15-5c8-4 15-12 15-20 0-7 13-33 30-57 17-25 30-48 30-53 0-4 8-16 17-27l18-19 3-217c1-119 5-226 7-238l5-23h243l23-26c13-14 24-30 24-35 0-6 11-25 25-43s25-40 25-49c0-10 4-17 10-17 5 0 21-24 35-52 35-72 76-142 86-146 5-2 9-11 9-20 1-10 9-27 19-39l19-23h525l13 18c7 9 14 22 14 29s12 31 28 55c36 57 47 75 73 123 11 22 33 58 48 80s34 56 43 76c10 19 25 43 35 52l19 16 119 3 120 3 5 220 5 220 28 55c33 65 68 126 120 210 20 34 37 67 37 75 0 7 6 15 13 18l12 4-12 22c-7 11-13 30-13 40 0 19-45 169-75 251-24 66-35 106-35 126 0 11-7 29-15 40-8 10-15 28-15 39s-13 58-30 105c-16 47-30 93-30 102v18h-132l7-17c13-32 66-207 72-238 3-16 9-35 14-40 4-6 9-28 11-50l3-40h-50l-18 60c-10 33-24 73-32 88-8 16-15 35-15 43v14l-25 10-25 10-24-9c-24-10-36-29-36-61 0-9-7-23-15-30l-15-12v-28c0-15-7-41-16-58l-15-32h-49v22c0 23 3 34 50 173 16 50 30 100 30 110 0 11 7 29 15 39 8 11 15 26 15 33v13h-116l-12-12-12-12v-31c0-17-4-35-10-41-5-5-19-45-31-89-11-43-27-91-35-106-7-15-14-39-14-52 0-12-5-28-12-35l-12-12H723l-16 18c-10 10-17 26-17 36s-11 52-25 94c-25 75-65 205-71 230l-3 12h-61c-33 0-60-3-60-6 0-7 25-85 45-144 24-69 35-107 35-122 0-9 7-29 15-44 8-16 15-39 15-51v-23h-22l-23 1-16 22c-9 12-19 39-23 61-4 21-12 46-17 55s-13 28-19 44l-10 27-24 12-25 11-23-15-23-15-14-49c-7-27-19-62-27-79-7-16-14-39-16-50l-3-20-28-3-27-3v28c0 16 12 62 26 103s28 89 31 105c2 17 8 39 13 50s16 39 24 63l14 42h-63c-34 0-65-3-68-7zm1533-413 9-15 1-552V460H221l3 561 2 560 11 7 11 7h747l746-1 9-14zM184 1333l-18-13-9 9-9 9 7 47 8 47 13 5c8 3 15 13 16 22s3-13 5-49l4-64-17-13zm1636 50 7-43-13-11-12-10-16 23-16 22v106l22-22 22-22 6-43zM200 1183v-18l-8 10c-4 6-11 13-16 18l-9 7h33v-17zm1600 7c-19-13-30-13-30 0v10h45l-15-10zm-444-754 5-13-27-49c-15-27-32-56-39-64-6-8-19-31-29-50s-23-44-29-55c-7-11-25-42-42-70-16-27-34-53-40-57l-10-8H834l-16 12c-17 14-50 65-69 108-6 14-21 39-35 57-13 17-24 38-24 46s-7 20-15 27-15 19-15 26c0 8-4 14-8 14s-14 16-21 35l-12 35 6 10 6 10h720l5-14zm49 1005c-116-21-270-127-316-219-7-15-18-34-25-42-16-22-44-131-44-174 0-21 8-70 17-110l17-71 13-8 13-8v-40l54-54c30-30 60-55 67-55s20-6 28-13c9-8 35-19 57-25l41-12h140l52 21c28 12 51 26 51 30 0 5 4 9 10 9 5 0 37 21 70 48l60 47v65l-25 12-24 11-33-25c-18-13-41-27-50-31-10-3-18-10-18-15s-25-17-56-27l-56-17-50 6c-69 10-99 29-144 92-29 41-41 80-49 149-8 73-8 67 3 141l8 61 16 24c16 24 53 63 82 87l15 12h158l44-35c24-19 55-51 69-70l25-34 26-1h27l6 16c3 9 6 55 6 103v88l-18 17-19 16-54 14c-74 19-146 25-194 17zm-1133-30-14-8 4-29 3-29 20-4c10-2 29-10 42-18l23-15v-277l-1-276-44-34-45-33v-17c0-9 5-22 12-29l12-12h581l14-9 15-10 18 10 19 10-3 137-3 137-35 3-35 3-10-20c-5-11-32-54-60-95l-50-75-112-1H510v569l40 28 39 28 6 27c4 15 4 32 0 38l-6 10H285l-13-9z"/></g><g fill="#ababab" transform="matrix(.1 0 0 -.1 0 200)"><path d="M217 1993c-4-3-7-15-7-26 0-20-9-54-35-127-7-19-26-82-44-140s-37-118-42-135c-10-29-15-44-38-125-5-19-16-53-25-75l-15-40v-50l-1-50 20-25c11-14 20-31 20-37 0-7 5-13 10-13h10v-41l15-5c8-4 15-12 15-20 0-7 13-33 30-57 17-25 30-48 30-53 0-4 8-16 17-27l18-19 6-232 5-231 2 563 2 564 18 5 18 4-4 32-3 32 26 75c15 41 29 89 32 105 2 17 8 39 13 50s16 39 24 63l14 42h-63c-34 0-65-3-68-7zm-33-660-18-13-9 9-9 9 7 47 8 47 13 5c8 3 15 13 16 22s3-13 5-49l4-64-17-13zm16-150v-18l-8 10c-4 6-11 13-16 18l-9 7h33v-17zm270 811c0-7 25-85 45-144 24-69 35-107 35-122 0-8 7-29 16-47l16-32-5-25-4-24h160l-21 23c-12 13-22 31-22 41s-11 52-25 94c-25 75-65 205-71 230l-3 12h-61c-33 0-60-3-60-6zm912-6-12-12v-31c0-17-4-35-10-41-5-5-19-45-31-89-11-43-27-91-35-106-7-15-14-38-14-50v-22l-17-19-16-18h161l-5 21-6 20 13 42c7 23 26 80 41 127 16 47 29 95 29 105 0 11 7 29 15 39 8 11 15 26 15 33v13h-116l-12-12zm253-5c13-32 66-207 72-238 3-16 10-35 15-42 5-6 10-32 11-57l2-46h25l2-572 2-573 6 220 5 220 28 55c33 65 68 126 120 210 20 34 37 67 37 75 0 7 6 15 13 18l12 4-12 22c-7 11-13 30-13 40 0 19-45 169-75 251-24 66-35 106-35 126 0 11-7 29-15 40-8 10-15 28-15 39s-13 58-30 105c-16 47-30 93-30 102v18h-132l7-17zm185-600 7-43-13-11-12-10-16 23-16 22v106l22-22 22-22 6-43zm-20-193c-19-13-30-13-30 0v10h45l-15-10zM372 1823l-19-18-18-60c-10-33-21-64-26-69-5-6-9-20-9-33v-22l-17-10-18-10 133-1h132v14c0 7-6 19-14 25l-14 11-6 39c-3 21-13 51-21 67s-15 34-15 41c0 13-38 43-56 43-7 0-21-8-32-17zm1178 10c-22-8-40-34-40-59v-22l-15-12-15-12v-57l-20-36-20-35h262l-11 14c-7 8-21 45-31 82-11 37-24 72-30 78-5 5-10 18-10 28v18l-26 10c-14 6-26 10-27 9-1 0-9-3-17-6zm-191-416c-108-38-190-98-244-177-56-83-85-161-85-233 0-47 20-139 38-173 5-11 15-31 23-47 16-34 84-102 124-123 17-9 50-22 75-30l45-14h122l42 15c35 12 82 42 128 80 6 6 28 23 47 39 41 32 44 46 17 70l-19 18-24-13c-13-6-25-15-28-18-3-4-30-22-59-40l-55-33-58-6-58-5-44 17-43 17-37 40c-20 22-36 45-36 50s-4 17-10 27c-12 23-40 142-40 173 0 29 25 120 45 164 15 34 57 76 95 96l25 13 61-1h61l36-18 37-17 50-55 50-54 17 3 18 3 3 95 3 95-22 18-21 17h-30c-16 0-38 5-48 10-11 6-45 12-77 15l-58 5-66-23zm-1077-19c-6-6-12-19-12-28v-17l40-12 40-12 5-22c3-12 5-142 3-288l-3-265-45-43-45-43 19-14 20-14 288-2c158-1 296-2 306-2l17-1 3 133 3 133-32-3-32-3-20-37c-10-21-23-38-28-38s-9-5-9-11-14-31-32-55l-31-44H500v589l22 12c12 6 33 22 46 34l24 22-4 19-3 19-145 3-145 3-13-13zm183-948-6-9 21-21c11-11 20-25 20-31s11-25 25-43 25-40 25-49c0-10 4-17 10-17 5 0 21-24 35-52 35-72 76-142 86-146 5-2 9-11 9-20 1-9 9-27 19-39l19-23h525l13 18c7 9 14 22 14 29s12 31 28 55c36 57 47 75 73 123 11 22 33 58 48 80s34 56 44 76c9 20 23 42 32 49l15 12-6 9-5 9h-64c-35 0-70-3-79-6l-15-6 5-12 5-13-27-49c-15-27-32-56-39-64-6-8-19-31-29-50s-23-44-29-55c-7-11-25-42-42-70-16-27-34-53-40-57l-10-8H834l-16 12c-17 14-50 65-69 108-6 14-21 39-35 57-13 17-24 38-24 46s-7 20-15 27-15 19-15 26c0 8-4 14-8 14-11 0-35 68-28 79l6 9-23 6c-12 3-48 6-79 6h-57l-6-10z"/></g><g fill="#797979" transform="matrix(.1 0 0 -.1 0 200)"><path d="M217 1993c-4-3-7-15-7-26 0-20-9-54-35-127-7-19-26-82-44-140s-37-118-42-135c-10-29-15-44-38-125-5-19-16-53-25-75l-15-40v-50l-1-50 20-25c11-14 20-31 20-37 0-7 5-13 10-13h10v-41l15-5c8-4 15-12 15-20 0-7 13-33 30-57 17-25 30-49 30-55 0-5 7-15 15-22s15-21 15-31 5-21 10-24l10-6v267l-20 22-21 22h41v160l-20-20-21-21-10 7-11 6 7 47 6 46 12 10c7 6 18 23 25 38l12 28v97l15 6 15 5v29c0 15 12 61 26 102s28 89 31 105c2 17 8 39 13 50s16 39 24 63l14 42h-63c-34 0-65-3-68-7zm253 1c0-7 25-85 45-144 26-73 35-107 35-126 0-11 4-24 10-30 5-5 13-27 18-49l8-40 34-3c18-2 49-1 68 3l34 6-16 18c-9 10-16 25-16 35s-11 52-25 94c-25 75-65 205-71 230l-3 12h-61c-33 0-60-3-60-6zm912-6-12-12v-31c0-17-4-35-10-41-5-5-19-45-31-89-11-43-27-91-35-106-7-15-14-39-14-53v-25l-11-7-11-6 13-9c16-10 90-12 113-3l16 6v21c0 22 3 33 50 172 16 50 30 100 30 110 0 11 7 29 15 39 8 11 15 26 15 33v13h-116l-12-12zm253-5c13-32 66-207 72-238 3-16 9-35 14-40 4-6 9-28 11-50l3-40 18-13 17-13v-119l22-22 22-22 6-43 7-43-13-11-12-10-16 23-16 22v-164l23-1h22l-22-11-23-11 1-151c0-83 3-144 6-136 21 54 75 156 146 270 20 34 37 67 37 75 0 7 6 15 13 18l12 4-12 22c-7 11-13 30-13 40 0 19-45 169-75 251-24 66-35 106-35 126 0 11-7 29-15 40-8 10-15 28-15 39s-13 58-30 105c-16 47-30 93-30 102v18h-132l7-17zM372 1823l-19-18-18-60c-10-33-21-64-25-70-5-5-10-23-12-40l-3-30 105-3 105-2 15 9 14 10-16 18c-8 10-18 35-22 55s-13 50-21 65-15 33-15 40c0 13-38 43-56 43-7 0-21-8-32-17zm1178 10c-22-8-40-34-40-59v-22l-15-12-15-12v-28c0-15-7-40-14-56-8-15-13-31-10-36l5-8h99c54 0 105 2 113 5l14 6-19 62c-10 34-25 75-33 90-8 16-15 35-15 43v14l-26 10c-14 6-26 10-27 9-1 0-9-3-17-6zm-167-418c-93-23-195-91-253-170-50-68-67-106-81-176l-12-60 11-68c7-37 21-89 32-115l21-47 47-49 47-49 50-22 50-22 67-5 67-5 47 12 47 12 46 32c25 18 57 42 71 55 13 12 28 22 32 22s13 10 19 22l12 21-18 13-18 13-21-11c-11-6-23-14-26-18-11-16-109-68-141-76-132-30-246 55-289 214l-11 43v144l15 41c29 84 66 125 134 155 50 22 84 24 133 8 68-21 93-39 156-113 13-14 30-26 38-26h15v189l-18 10c-16 8-193 42-210 40-4-1-30-7-59-14zm-1093-20-12-15 6-15 5-15h41l20-20 20-20V763l-25-27c-13-14-28-26-33-26s-14-11-20-24l-11-24 14-6c8-3 147-6 309-7l294-1 11 6 11 7v215l-12 12c-7 7-17 12-22 12-6 0-41-44-77-98l-65-97-122-3-122-3v608l40 28 41 28-3 21-3 21-136 3-136 3-13-16zm175-955-6-10h11c6 0 16-12 22-27 7-16 23-42 35-59 13-17 23-38 23-47 0-10 4-17 10-17 5 0 21-24 35-52 35-72 76-142 86-146 5-2 9-11 9-20 1-9 9-27 19-39l19-23h525l13 18c7 9 14 22 14 29s12 31 28 55c36 57 47 75 73 123 11 22 33 58 48 80s34 57 44 77 22 40 27 43c6 3 10 10 10 16v9h-140l-19-42c-11-24-30-59-43-78s-32-51-42-70c-9-19-23-44-29-55-7-11-25-42-42-70-16-27-34-53-40-57l-10-8H834l-16 12c-17 14-50 65-69 108-6 14-21 39-35 57-13 17-24 38-24 46s-7 20-15 27-15 18-15 25c0 8-4 15-8 17-5 2-15 21-24 43l-16 40-70 3-70 3-7-11z"/></g><g fill="#3f3f3f" transform="matrix(.1 0 0 -.1 0 200)"><path d="M217 1993c-4-3-7-15-7-26 0-20-9-54-35-127-7-19-26-82-44-140s-37-118-42-135c-10-29-15-44-38-125-5-19-16-53-25-75l-15-40v-50l-1-50 20-25c11-14 20-31 20-37 0-7 5-13 10-13h10v-41l15-5c8-4 15-12 15-20 0-7 13-33 30-57 17-25 30-49 30-55 0-5 6-15 14-21l14-11 6 22c3 13 6 64 6 115v92l-16 15-15 16h32l-3 63-3 62h-40l3 50 2 50 17 13 18 13 3 75 4 74 19 11 19 10v22c0 13 12 56 26 97s28 89 31 105c2 17 8 39 13 50s16 39 24 63l14 42h-63c-34 0-65-3-68-7zm253 1c0-7 25-85 45-144 24-69 35-107 35-122 0-9 7-29 15-44 8-16 15-39 15-51v-23h119l6 9 5 10-10 6c-5 3-10 15-10 26 0 12-11 55-25 97-25 75-65 205-71 230l-3 12h-61c-33 0-60-3-60-6zm912-6-12-12v-31c0-17-4-35-10-41-5-5-19-45-31-89-11-43-26-90-33-104s-16-43-19-63l-6-38h120l3 13c2 6 9 32 16 57s26 83 41 130c16 47 29 95 29 105 0 11 7 29 15 39 8 11 15 26 15 33v13h-116l-12-12zm253-5c13-32 66-207 72-238 3-16 9-34 13-40 4-5 11-29 15-52l7-42 19-6 19-6v-148l16-9 17-9 7-47 7-46-12-10-11-10-12 12-12 12v-144h18l17-1-17-10-18-10v-109c0-59 3-116 6-125l7-17 19 38c23 47 60 112 111 194 20 34 37 67 37 75 0 7 6 15 13 18l12 4-12 22c-7 11-13 30-13 40 0 19-45 169-75 251-24 66-35 106-35 126 0 11-7 29-15 40-8 10-15 28-15 39s-13 58-30 105c-16 47-30 93-30 102v18h-132l7-17zM372 1823l-19-18-18-60c-10-33-21-64-26-69-5-6-9-23-9-38v-28h219l5 9 6 9-14 11-14 11-6 39c-3 21-13 51-21 67s-15 34-15 41c0 13-38 43-56 43-7 0-21-8-32-17zm1178 10c-22-8-40-34-40-59v-22l-15-12-15-12v-67l-10-6c-5-3-10-15-10-26v-19h220v8c0 19-41 147-50 156-5 5-10 18-10 28v18l-26 10c-14 6-26 10-27 9-1 0-9-3-17-6zm-190-432c-159-53-286-198-306-349l-6-50 11-65c17-99 42-149 106-211l40-39 45-21 45-20h200l25 14c14 8 53 35 87 60 61 44 80 70 68 90l-6 9-24-11c-14-6-25-15-25-19s-32-24-71-43l-72-36h-95l-35 15c-78 32-138 107-163 202l-14 54v144l15 43c28 81 72 132 140 163l40 19h81l55-27 54-26 33-33c17-18 32-37 32-42 0-12 21-20 38-15l12 5v153l-33 18-32 19-110 4-110 4-25-9zm-1058-23 3-23 20-3c11-2 28-11 38-20l17-15V763l-20-26c-11-14-29-29-40-32l-20-6v-38l293-3c160-2 298-1 305 1l12 3v93c0 143-13 156-70 74-19-28-41-57-47-64-7-7-13-18-13-23 0-4-10-18-23-30l-23-22H502l-6 16c-3 9-6 146-6 306v289l40 36c22 20 40 42 40 50v13H299l3-22zm178-958c11-11 20-25 20-31s11-25 25-43 25-40 25-49c0-10 4-17 10-17 5 0 21-24 35-52 35-72 76-142 86-146 5-2 9-11 9-20 1-9 9-27 19-40l19-22h525l13 18c7 9 14 22 14 29s12 31 28 55c36 57 47 75 73 123 11 22 33 58 48 80 14 22 33 54 41 70 8 17 21 38 29 48l14 17h-148l-14-33c-8-17-26-50-40-72-15-22-35-56-45-75-9-19-23-44-29-55-7-11-25-42-42-70-16-27-34-53-40-57l-10-8H834l-16 12c-17 14-50 65-69 108-6 14-21 39-35 57-13 17-24 38-24 46s-7 20-15 27-15 19-15 26c0 8-4 14-8 14-5 0-15 18-22 40l-13 40H460l20-20z"/></g><g fill="#070707" transform="matrix(.1 0 0 -.1 0 200)"><path d="M217 1993c-4-3-7-15-7-26 0-20-9-54-35-127-7-19-26-82-44-140s-37-118-42-135c-10-29-15-44-38-125-5-19-16-53-25-75l-15-40v-50l-1-50 20-25c11-14 20-31 20-37 0-7 5-13 10-13h10v-41l15-5c8-4 15-12 15-20 0-7 13-33 30-57 17-25 30-50 30-56s4-11 9-11h8l6 113 6 112-7 2-7 3 3 70 4 71-14-3-13-3 3 50 2 50 17 12 16 12-6 71-6 70 21 20c12 11 25 20 30 20 4 0 8 8 8 18s12 51 26 92 28 89 31 105c2 17 8 39 13 50s16 39 24 63l14 42h-63c-34 0-65-3-68-7zm253 1c0-7 25-85 45-144 26-74 35-107 35-128 0-11 4-23 9-27 5-3 12-19 16-35l7-30h115l-7 38c-4 20-17 66-29 102-24 74-62 199-67 218l-3 12h-61c-33 0-60-3-60-6zm912-6-12-12v-31c0-17-4-35-10-41-5-5-19-45-31-89-11-43-27-91-35-106-7-15-14-39-14-54v-25h116l13 48c7 26 26 85 42 132s29 95 29 105c0 11 7 29 15 39 8 11 15 26 15 33v13h-116l-12-12zm253-5c11-27 65-204 71-233 3-14 9-34 14-45s11-31 14-45l5-25 31-19 32-18-8-75-7-75 13-8 13-8 7-46 7-46-14-12-14-11 2-62c1-34 0-66-3-71s-2-58 1-119l7-110 12 25c16 32 57 103 105 180 20 34 37 67 37 75 0 7 6 15 13 18l12 4-12 22c-7 11-13 30-13 40 0 19-45 169-75 251-24 66-35 106-35 126 0 11-7 29-15 40-8 10-15 28-15 39s-13 58-30 105c-16 47-30 93-30 102v18h-132l7-17zM372 1823l-19-18-18-60c-10-33-21-64-26-69-5-6-9-18-9-28v-18h222l-9 13c-6 6-13 29-17 49s-13 50-21 65-15 33-15 40c0 13-38 43-56 43-7 0-21-8-32-17zm1178 10c-22-8-40-34-40-59v-22l-15-12-15-12v-67l-10-6c-5-3-10-10-10-16v-9h219l-20 67c-10 37-23 71-29 77-5 5-10 18-10 28v18l-26 10c-14 6-26 10-27 9-1 0-9-3-17-6zm-240-466c-102-51-166-112-211-203l-29-57V881l10-6c6-3 10-14 10-24s7-24 15-31 15-18 15-25c0-13 54-71 87-92 64-43 135-57 243-47l67 7 31 26c57 48 77 63 100 74l22 10v36l-52-36c-29-19-72-44-96-54l-44-19h-96l-37 16c-55 23-93 54-126 102l-29 43v23c0 12-5 27-12 34l-12 12-1 115v114l13 12c6 7 12 23 12 35v22l48 48 47 49 38 18 38 17h87l46-20 46-19 52-52 51-51 8 14c5 7 9 38 9 69v55l-45 22-46 22h-97l-97-1-65-32zm-998 11c2-6 20-17 39-23l34-12 3-298 2-299-42-37-43-37 25-7c14-3 54-5 89-3l63 3 1 323 2 324 33 29c17 16 32 33 32 39v10H308l4-12zm546-537c-10-10-18-22-18-27s-13-25-30-44c-16-19-29-40-30-47 0-7-7-16-17-21l-16-10 6-16 6-16h131v200l-7-1c-5 0-16-8-25-18zM494 404c4-15 18-41 32-59 13-17 24-39 24-48 0-10 4-17 10-17 5 0 21-24 35-52 35-72 76-142 86-146 5-2 9-11 9-20 1-9 9-27 19-39l19-23h525l13 18c7 9 14 22 14 29s12 31 28 55c35 56 47 75 71 120 11 21 33 57 48 80 30 46 62 108 63 121v7h-128l-15-33c-9-18-26-48-39-67s-32-51-42-70c-9-19-23-44-29-55-7-11-25-42-42-70-16-27-34-53-40-57l-10-8H834l-16 13c-17 13-50 64-69 107-6 14-21 39-35 57-13 17-24 38-24 46s-7 20-15 27-15 19-15 26c0 8-4 14-8 14s-14 16-21 35l-12 35H488l6-26z"/></g></g></svg>